<svg xmlns="http://www.w3.org/2000/svg" width="2038.812" height="750.612" viewBox="0 0 2038.812 750.612">
  <g id="ba-1" transform="translate(-53 -873.891)">
    <g id="honey" transform="translate(628.295 1296.933)">
      <g id="Group_36" data-name="Group 36" transform="translate(-575.295 -423.043)">
        <path id="Path_131" data-name="Path 131" d="M338.272,116.116,302.956,55.135H239.412L207.38,0H136.99L105.158,55.135H41.976L6.66,116.116l31.832,55.135L6.66,226.387l35.316,60.981h63.183L137.191,342.5h70.39l32.032-55.135h63.543l35.316-61.142L306.44,171.092ZM296.029,67.148l28.589,48.968-28.588,49.13H239.293l-28.269-49.009,28.389-49.09h56.616Zm-67.107,104.1-28.429,49.13H144.437l-28.389-49.13,28.389-49.13h56.056Zm-85.006-159.4h56.576L228.8,60.861l-28.309,49.248H144.437L115.808,60.58ZM48.9,67.148h56.056l28.588,49.529-28.028,48.729H48.9l-28.389-49.29Zm56.055,208.528H48.9L20.512,226.387,48.9,177.257h56.737l28.028,48.729Zm95.536,54.976H143.918l-28.028-48.729,28.548-49.529h56.056l28.429,49.248Zm95.535-55.3H239.413l-28.389-49.049,28.269-49.049h56.737l28.588,49.13Z" transform="translate(-6.66)" fill="#fbf9f6"/>
      </g>
    </g>
    <g id="honey-2" data-name="honey" transform="translate(2201.933 1567.384)">
      <g id="Group_36-2" data-name="Group 36" transform="translate(-575.295 -423.043)">
        <path id="Path_131-2" data-name="Path 131" d="M471.553,162.785l-49.51-85.491H332.96L288.054,0H189.373L144.747,77.295H56.17L6.66,162.785,51.286,240.08,6.66,317.377l49.51,85.491h88.577l44.907,77.295h98.681l44.907-77.295h89.082l49.51-85.716-44.907-77.295Zm-59.221-68.65,40.08,68.65-40.079,68.876H332.793l-39.631-68.707,39.8-68.82h79.371ZM318.255,240.082,278.4,308.958H199.812l-39.8-68.876,39.8-68.876H278.4ZM199.083,16.615H278.4l39.687,68.707L278.4,154.364H199.812L159.677,84.928ZM65.881,94.136h78.586l40.079,69.436-39.293,68.314H65.881l-39.8-69.1Zm78.585,292.34H65.879l-39.8-69.1,39.8-68.876H145.42l39.293,68.314ZM278.4,463.548H199.084l-39.293-68.314L199.813,325.8H278.4l39.856,69.042Zm133.933-77.521H332.961l-39.8-68.763L332.792,248.5h79.54l40.079,68.876Z" transform="translate(-6.66)" fill="#fbf9f6"/>
      </g>
    </g>
  </g>
</svg>
